# xmcd
#
# Track frame offsets:
#	150
#	16724
#	36462
#	61817
#	84764
#	105985
#	136352
#	164971
#	189944
#	210104
#
# Disc length: 3157 seconds
#
# Revision: 0
# Processed by: cddbd v1.5.1PL0 Copyright (c) Steve Scherf et al.
# Submitted via: EasyCDDAExtractor 4.6.9.1
#
DISCID=740c530a
DTITLE=Depeche Mode - Live Gotheburg 12.09.1998 - CD1
DYEAR=1998
DGENRE=live
TTITLE0=Painkiller
TTITLE1=A Question Of Time
TTITLE2=World In My Eyes
TTITLE3=Policy Of Truth
TTITLE4=It's No Good
TTITLE5=Never Let Me Down Again
TTITLE6=Walking In My Shoes
TTITLE7=Only When I Lose Myself
TTITLE8=A Question Of Lust
TTITLE9=Home
EXTD=
EXTT0=
EXTT1=
EXTT2=
EXTT3=
EXTT4=
EXTT5=
EXTT6=
EXTT7=
EXTT8=
EXTT9=
PLAYORDER=
